# xmcd
#
# Track frame offsets: 
#        150
#        16236
#        28515
#        41511
#        57965
#        73595
#        91911
#        106029
#        116459
#        128922
#        144223
#        156581
#
# Disc length: 2297 seconds
#
# Revision: 0
# Processed by: cddbd v1.5.1PL0 Copyright (c) Steve Scherf et al.
# Submitted via: ExactAudioCopy v0.95a5
#
DISCID=9508f70c
DTITLE=Usvit - Osada snow
DYEAR=2000
DGENRE=Country
TTITLE0=Zivot bez lasky
TTITLE1=Hrame vam
TTITLE2=Riecny prud
TTITLE3=Srdce
TTITLE4=Cesta spat
TTITLE5=Rieka zivota
TTITLE6=Strazny anjel
TTITLE7=Kapela
TTITLE8=Moj Tien
TTITLE9=Osada snow
TTITLE10=Pohorie smutku
TTITLE11=Vyhra nad zivotom
EXTD=
EXTT0=
EXTT1=
EXTT2=
EXTT3=
EXTT4=
EXTT5=
EXTT6=
EXTT7=
EXTT8=
EXTT9=
EXTT10=
EXTT11=
PLAYORDER=
